<svg width="24" height="24" viewBox="0 0 24 39" fill="none" xmlns="http://www.w3.org/2000/svg">
<circle cx="12" cy="12" r="12" fill="#E0B53E"/>
<path d="M17 2H6.99998C5.622 2 4.5 2.93418 4.5 4.08332V21.5833C4.5 21.7516 4.62202 21.9041 4.809 21.9675C4.99598 22.0333 5.211 21.9966 5.35402 21.8775L12 16.3392L18.646 21.8783C18.742 21.9575 18.87 22 19 22C19.064 22 19.129 21.99 19.191 21.9683C19.378 21.9041 19.5 21.7516 19.5 21.5833V4.08336C19.5 2.935 18.378 2 17 2ZM18.5 20.5766L12.354 15.455C12.256 15.3742 12.128 15.3333 12 15.3333C11.872 15.3333 11.744 15.3741 11.646 15.4558L5.49998 20.5775V4.08332C5.49998 3.39414 6.17297 2.83332 6.99998 2.83332H17C17.827 2.83332 18.5 3.39414 18.5 4.08332V20.5766H18.5Z" fill="#F6F6F6" stroke="#F6F6F6" stroke-width="0.6"/>
</svg>