<svg width="24" height="37" viewBox="0 0 24 37" fill="none"
    xmlns="http://www.w3.org/2000/svg">
    <circle cx="12" cy="12" r="12" fill="#E0B53E"/>
    <path d="M17 16H6.99998C5.622 16 4.5 16.9342 4.5 18.0833V35.5833C4.5 35.7516 4.62202 35.9041 4.809 35.9675C4.99598 36.0333 5.211 35.9966 5.35402 35.8775L12 30.3392L18.646 35.8783C18.742 35.9575 18.87 36 19 36C19.064 36 19.129 35.99 19.191 35.9683C19.378 35.9041 19.5 35.7516 19.5 35.5833V18.0834C19.5 16.935 18.378 16 17 16ZM18.5 34.5766L12.354 29.455C12.256 29.3742 12.128 29.3333 12 29.3333C11.872 29.3333 11.744 29.3741 11.646 29.4558L5.49998 34.5775V18.0833C5.49998 17.3941 6.17297 16.8333 6.99998 16.8333H17C17.827 16.8333 18.5 17.3941 18.5 18.0833V34.5766H18.5Z" fill="#F6F6F6" stroke="#F6F6F6" stroke-width="0.6"/>
</svg>
