<svg width="16" height="22" viewBox="0 0 16 22" fill="none"
    xmlns="http://www.w3.org/2000/svg">
    <path d="M13 1H2.99998C1.622 1 0.5 1.93418 0.5 3.08332V20.5833C0.5 20.7516 0.622016 20.9041 0.809 20.9675C0.995984 21.0333 1.211 20.9966 1.35402 20.8775L8 15.3392L14.646 20.8783C14.742 20.9575 14.87 21 15 21C15.064 21 15.129 20.99 15.191 20.9683C15.378 20.9041 15.5 20.7516 15.5 20.5833V3.08336C15.5 1.935 14.378 1 13 1ZM14.5 19.5766L8.354 14.455C8.25598 14.3742 8.12802 14.3333 8 14.3333C7.87198 14.3333 7.74402 14.3741 7.646 14.4558L1.49998 19.5775V3.08332C1.49998 2.39414 2.17297 1.83332 2.99998 1.83332H13C13.827 1.83332 14.5 2.39414 14.5 3.08332L14.5 19.5766Z" fill="#018CF1"/>
    <path d="M14.5 19.5766L8.354 14.455C8.25598 14.3742 8.12802 14.3333 8 14.3333C7.87198 14.3333 7.74402 14.3741 7.646 14.4558L1.49998 19.5775V3.08332C1.49998 2.39414 2.17297 1.83332 2.99998 1.83332H13C13.827 1.83332 14.5 2.39414 14.5 3.08332L14.5 19.5766Z" fill="#018CF1"/>
    <path d="M13 1H2.99998C1.622 1 0.5 1.93418 0.5 3.08332V20.5833C0.5 20.7516 0.622016 20.9041 0.809 20.9675C0.995984 21.0333 1.211 20.9966 1.35402 20.8775L8 15.3392L14.646 20.8783C14.742 20.9575 14.87 21 15 21C15.064 21 15.129 20.99 15.191 20.9683C15.378 20.9041 15.5 20.7516 15.5 20.5833V3.08336C15.5 1.935 14.378 1 13 1ZM14.5 19.5766L8.354 14.455C8.25598 14.3742 8.12802 14.3333 8 14.3333C7.87198 14.3333 7.74402 14.3741 7.646 14.4558L1.49998 19.5775V3.08332C1.49998 2.39414 2.17297 1.83332 2.99998 1.83332H13C13.827 1.83332 14.5 2.39414 14.5 3.08332L14.5 19.5766Z" stroke="#018CF1" stroke-width="0.6"/>
    <path d="M14.5 19.5766L8.354 14.455C8.25598 14.3742 8.12802 14.3333 8 14.3333C7.87198 14.3333 7.74402 14.3741 7.646 14.4558L1.49998 19.5775V3.08332C1.49998 2.39414 2.17297 1.83332 2.99998 1.83332H13C13.827 1.83332 14.5 2.39414 14.5 3.08332L14.5 19.5766Z" stroke="#018CF1" stroke-width="0.6"/>
</svg>
