<svg width="24" height="36" viewBox="0 0 24 36" fill="none"
    xmlns="http://www.w3.org/2000/svg">
    <circle cx="12" cy="12" r="12" fill="#24C678"/>
    <path d="M10.9551 17.4762L10.0358 11.4263C9.99927 11.1803 9.78541 11.0003 9.535 11.0003C9.52992 11.0003 9.52383 11.0003 9.51775 11.0003C9.26131 11.0083 9.05149 11.2053 9.0302 11.4583L8.58622 16.7103C8.55885 17.0342 7.97598 17.0342 7.94861 16.7103L7.50463 11.4583C7.48334 11.1993 7.26339 11.0002 6.99983 11.0002C6.73626 11.0002 6.51631 11.1992 6.49602 11.4583L6.05204 16.7102C6.02467 17.0342 5.4418 17.0342 5.41444 16.7102L4.9705 11.4583C4.94921 11.2063 4.73939 11.0092 4.48295 11.0002C4.47687 11.0002 4.47078 11.0002 4.4657 11.0002C4.21534 11.0002 4.00143 11.1802 3.96394 11.4262L3.04457 17.4762C2.77492 19.2492 3.75007 20.9441 5.39424 21.6521L4.61171 32.472C4.5651 33.123 4.79622 33.77 5.24728 34.248C5.69734 34.726 6.33595 35 7.00192 35C7.66385 35 8.30246 34.726 8.75352 34.248C9.20458 33.77 9.43569 33.123 9.38908 32.472L8.60655 21.6521C10.2506 20.9452 11.2258 19.2492 10.9551 17.4762ZM7.91621 20.8412C7.69421 20.9122 7.55029 21.1231 7.56649 21.3521L8.37539 32.543C8.40376 32.923 8.27404 33.287 8.01048 33.566C7.48539 34.123 6.51836 34.129 5.98723 33.566C5.72471 33.287 5.59495 32.924 5.62231 32.543L6.43221 21.3511C6.44742 21.1221 6.30449 20.9111 6.0825 20.8401C4.68769 20.3951 3.83118 19.0422 4.04709 17.6242L4.32178 15.8182L4.40388 16.7942C4.46066 17.4701 5.04453 18.0001 5.73279 18.0001C6.31566 18.0001 6.8235 17.6201 6.99988 17.0921C7.17625 17.6201 7.68409 18.0001 8.26696 18.0001C8.95422 18.0001 9.53909 17.4701 9.59587 16.7951L9.67797 15.8192L9.95266 17.6251C10.1685 19.0432 9.31201 20.3962 7.91621 20.8412Z" fill="#F6F6F6" stroke="#F6F6F6" stroke-width="0.4"/>
    <path d="M20.7456 11.0912C20.5872 10.9972 20.3832 10.9752 20.1996 11.0282C20.148 11.0432 15 12.6192 15 17.4991C15 21.0121 16.3704 22.7861 17.1432 23.5061L16.3752 24.146C16.2768 24.228 16.2156 24.335 16.2024 24.45L15.2532 32.3609C15.1704 33.0339 15.4368 33.7079 15.9816 34.2099C16.5264 34.7119 17.3052 34.9998 18.1176 34.9998C19.7064 34.9998 20.9988 33.9229 21 32.5989V11.4992C21.0001 11.3372 20.9053 11.1852 20.7456 11.0912ZM19.7976 32.6C19.7976 33.3719 19.0441 34 18.1176 34C17.6376 34 17.1948 33.836 16.872 33.539C16.5492 33.242 16.398 32.859 16.446 32.461L17.3737 24.7281L18.4213 23.8541C18.5448 23.7511 18.606 23.6071 18.5929 23.4621C18.5797 23.3171 18.4897 23.1821 18.3493 23.0951C18.3277 23.0821 16.1976 21.7191 16.1976 17.5002C16.1976 14.4112 18.5244 12.8913 19.7976 12.2913V32.6Z" fill="#F6F6F6" stroke="#F6F6F6" stroke-width="0.4"/>
</svg>