<svg width="16" height="22" viewBox="0 0 16 22" fill="none"
    xmlns="http://www.w3.org/2000/svg">
    <path d="M13 1H2.99998C1.622 1 0.5 1.93418 0.5 3.08332V20.5833C0.5 20.7516 0.622016 20.9041 0.809 20.9675C0.995984 21.0333 1.211 20.9966 1.35402 20.8775L8 15.3392L14.646 20.8783C14.742 20.9575 14.87 21 15 21C15.064 21 15.129 20.99 15.191 20.9683C15.378 20.9041 15.5 20.7516 15.5 20.5833V3.08336C15.5 1.935 14.378 1 13 1ZM14.5 19.5766L8.354 14.455C8.25598 14.3742 8.12802 14.3333 8 14.3333C7.87198 14.3333 7.74402 14.3741 7.646 14.4558L1.49998 19.5775V3.08332C1.49998 2.39414 2.17297 1.83332 2.99998 1.83332H13C13.827 1.83332 14.5 2.39414 14.5 3.08332V19.5766H14.5Z" fill="#F6F6F6"/>
    <path fill-rule="evenodd" clip-rule="evenodd" d="M0.200012 3.08327C0.200012 1.71948 1.50995 0.699951 3 0.699951H13C14.4902 0.699951 15.8 1.72038 15.8 3.08331V20.5833C15.8 20.9061 15.5696 21.1555 15.2884 21.252C15.1925 21.2853 15.0944 21.2999 15 21.2999C14.8076 21.2999 14.6102 21.2376 14.4551 21.1097L14.4539 21.1087L8 15.7296L1.54608 21.1079C1.31773 21.2982 0.991497 21.3491 0.710877 21.2509C0.429366 21.1548 0.200012 20.9053 0.200012 20.5832V3.08327ZM3 1.29995C1.73408 1.29995 0.800012 2.14877 0.800012 3.08327V20.5832C0.800012 20.5971 0.813681 20.6522 0.90529 20.6833L0.908624 20.6844C1.00164 20.7172 1.1047 20.6947 1.16197 20.6469L8.00003 14.9486L14.8369 20.6468C14.8367 20.6467 14.837 20.647 14.8369 20.6468C14.8739 20.6771 14.9328 20.7 15 20.7C15.0331 20.7 15.0644 20.6947 15.092 20.6851L15.0936 20.6845C15.1863 20.6527 15.2 20.5971 15.2 20.5833V19.8766H14.2V19.7171L8.16316 14.6864C8.163 14.6863 8.16332 14.6865 8.16316 14.6864C8.12509 14.6552 8.06662 14.6332 8.00001 14.6332C7.93314 14.6332 7.87561 14.6549 7.83807 14.6862L1.2 20.2179V3.08327C1.2 2.17951 2.06083 1.53327 3 1.53327H13C13.9391 1.53327 14.8 2.17951 14.8 3.08327V19.436L15.2 19.7694V3.08331C15.2 2.14952 14.2659 1.29995 13 1.29995H3ZM14.2 18.936V3.08327C14.2 2.60867 13.7148 2.13327 13 2.13327H3C2.28513 2.13327 1.8 2.60867 1.8 3.08327V18.9369L7.45396 14.2253C7.61244 14.0932 7.81085 14.0332 8.00001 14.0332C8.18916 14.0332 8.38689 14.0932 8.54487 14.2235L8.54607 14.2245L14.2 18.936Z" fill="#F6F6F6"/>
</svg>
