<svg width="29" height="29" viewBox="0 0 29 29" fill="none" xmlns="http://www.w3.org/2000/svg">
<path d="M14.5 6.43242e-05C15.8304 6.43242e-05 17.1118 0.175877 18.3443 0.523877C20.7615 1.19942 22.9634 2.48735 24.737 4.26306C25.6233 5.15119 26.3809 6.12994 27.0099 7.20113C27.6388 8.27231 28.1264 9.42507 28.4762 10.6558C28.826 11.8864 29 13.1697 29 14.5001C29 15.8304 28.8242 17.1119 28.4762 18.3444C27.4552 21.9879 25.0619 25.094 21.7989 27.0099C20.7152 27.6452 19.5541 28.138 18.3443 28.4763C17.1118 28.8261 15.8304 29.0001 14.5 29.0001C13.1696 29.0001 11.8882 28.8261 10.6557 28.4763C8.23718 27.8039 6.03451 26.5155 4.263 24.7371C3.38133 23.8603 2.61731 22.8727 1.99013 21.799C1.35608 20.7147 0.863309 19.5537 0.523813 18.3444C0.174 17.1119 0 15.8323 0 14.5001C0 13.1679 0.174 11.8883 0.523813 10.6558C1.19592 8.23715 2.48433 6.03442 4.263 4.26306C6.03685 2.48801 8.23873 1.20072 10.6557 0.525689C11.9065 0.173031 13.2004 -0.00387376 14.5 6.43242e-05ZM14.5 27.1876C15.5766 27.1876 16.6297 27.0534 17.6574 26.7761C19.7014 26.2385 21.5811 25.2044 23.1293 23.7656C23.9083 23.0429 24.5956 22.2272 25.1756 21.3368C25.0517 21.0512 24.9339 20.7629 24.8222 20.4723C24.7088 20.1836 24.651 19.8761 24.6518 19.566C24.6518 19.2253 24.6681 18.9498 24.7008 18.7377C24.7334 18.5256 24.7642 18.3444 24.7932 18.1921C24.8222 18.0435 24.8421 17.9021 24.8566 17.7753C24.8711 17.6484 24.8566 17.5088 24.8095 17.3457C24.7624 17.1862 24.6808 16.9923 24.5612 16.7657C24.4416 16.5391 24.2712 16.2473 24.0446 15.8884C24.0537 15.8232 24.0718 15.7326 24.0936 15.6202C24.1394 15.39 24.1583 15.1552 24.1497 14.9206C24.1483 14.8293 24.1266 14.7396 24.0863 14.6578C23.8252 14.6256 23.567 14.5729 23.3142 14.5001C23.0609 14.4319 22.8229 14.3162 22.6127 14.1593L22.6979 14.0886C22.5726 14.1203 22.4496 14.1609 22.33 14.2101C22.2105 14.2613 22.0902 14.3108 21.9693 14.3587C21.8515 14.4056 21.7311 14.4455 21.6086 14.4783C21.484 14.5122 21.3553 14.5286 21.2262 14.5273L20.9996 14.5001L21.0413 14.4004C20.909 14.4384 20.7658 14.4856 20.6099 14.5418C20.4541 14.5979 20.3109 14.6269 20.1786 14.6269C20.0369 14.6166 19.8979 14.5829 19.7671 14.5273C19.5805 14.4581 19.3983 14.3776 19.2216 14.2862C19.0367 14.1919 18.8772 14.0886 18.7394 13.9744C18.6017 13.8603 18.5346 13.7533 18.5346 13.6482L18.5636 13.6065C18.5107 13.545 18.4483 13.4924 18.3787 13.4506C18.3049 13.4047 18.2317 13.3576 18.1594 13.3093C18.0887 13.2639 18.0308 13.2132 17.9836 13.1552C17.9365 13.0972 17.9129 13.0338 17.9129 12.9576L18.0688 12.8308L17.7426 12.7891L17.6302 12.3631C17.6501 12.4103 17.6936 12.4302 17.7643 12.4193C17.8184 12.4163 17.8703 12.3966 17.9129 12.3631L17.4036 12.0931L17.7571 11.1868C17.6248 10.6956 17.5939 10.3186 17.6646 10.054C17.7267 9.80433 17.8566 9.57666 18.0398 9.39606C18.2192 9.22206 18.4295 9.05169 18.6706 8.88675C18.9116 8.72181 19.14 8.49344 19.3575 8.19981L19.314 8.02944L20.2493 6.89663L20.4613 6.86763C20.7259 6.86763 21.0232 6.85675 21.3531 6.83138C21.6848 6.80781 22.0183 6.77519 22.359 6.73169C22.6998 6.68819 23.0332 6.64288 23.3649 6.59031C23.6966 6.53956 23.9975 6.47975 24.2712 6.41269C23.6686 5.69922 22.9952 5.04881 22.2611 4.4715C22.156 4.50956 22.0273 4.56394 21.8714 4.63463C21.7156 4.70531 21.5651 4.79413 21.4237 4.89381C21.2824 4.9935 21.1609 5.10406 21.0631 5.22731C20.9701 5.33336 20.9175 5.46877 20.9144 5.60975L20.9996 5.878C20.8293 6.15169 20.6407 6.32388 20.4323 6.39456C20.2239 6.46525 20.01 6.50331 19.7889 6.50875C19.5623 6.51353 19.3356 6.51111 19.1092 6.5015C18.8784 6.49291 18.6486 6.53627 18.4368 6.62838L18.2102 6.14625L18.4222 5.32519L18.1812 4.97175L20.6317 4.20688C20.5366 3.95305 20.3532 3.742 20.1151 3.61238C19.8789 3.48142 19.6131 3.41339 19.343 3.41481V3.27163L20.1369 3.14475C19.2635 2.71237 18.3442 2.37979 17.3964 2.15331C15.647 1.73478 13.8277 1.70077 12.064 2.05363C10.466 2.37322 8.94311 2.99319 7.57625 3.88063C6.8875 4.32469 6.2495 4.834 5.66406 5.41038C5.90875 5.41038 6.10087 5.47381 6.23681 5.60069C6.37275 5.72756 6.496 5.86531 6.60475 6.01213C6.7135 6.15894 6.8295 6.29488 6.95094 6.42356C7.0155 6.48815 7.09291 6.53846 7.17814 6.57124C7.26338 6.60402 7.35455 6.61855 7.44575 6.61388L7.67231 6.4435L7.64694 6.13175L8.11456 5.46656L7.74481 4.41894C7.79375 4.38994 7.86625 4.34281 7.96594 4.27756C8.06563 4.21231 8.14356 4.17788 8.19975 4.17788C8.4825 4.17788 8.70181 4.19238 8.85769 4.21956C9.01356 4.24675 9.14225 4.30294 9.24738 4.38269C9.36329 4.47483 9.46364 4.58498 9.54462 4.70894C9.63887 4.84669 9.77119 5.0225 9.94156 5.24L10.4509 4.84306L10.9113 5.03519C11.1233 5.12581 11.3336 5.22913 11.542 5.34694C11.7486 5.46475 11.9335 5.58981 12.0948 5.72213C12.2543 5.85444 12.3341 5.97588 12.3341 6.09006C12.3341 6.23144 12.2797 6.34563 12.1709 6.43081C12.0622 6.516 11.9281 6.58488 11.7668 6.64288C11.6054 6.70088 11.4296 6.74438 11.2357 6.777C11.0578 6.80735 10.8807 6.8424 10.7046 6.88213C10.5623 6.91393 10.4246 6.96388 10.295 7.03075C10.1808 7.09419 10.1246 7.17213 10.1246 7.26456L10.9457 7.53281C10.5546 7.85917 10.1211 8.1311 9.657 8.34119L9.71319 8.58225L8.41181 9.09156V9.4885L8.31213 9.53019L8.38281 9.03538L8.32662 9.02088C8.26137 9.02088 8.21969 9.03538 8.20519 9.06256C8.19069 9.08975 8.19069 9.126 8.19794 9.16225C8.20754 9.20106 8.21965 9.2392 8.23419 9.27644C8.24869 9.3145 8.2505 9.3435 8.24144 9.36163L8.05656 9.26194L8.08556 9.31813C8.08556 9.34713 8.10187 9.38881 8.1345 9.445C8.16712 9.50119 8.20519 9.55738 8.24869 9.60813C8.29038 9.66069 8.34656 9.72775 8.41181 9.81294C8.41181 9.84194 8.39006 9.86913 8.34838 9.89813C8.30669 9.92713 8.26138 9.94888 8.21244 9.96338L8.09825 9.99963C8.06925 10.0087 8.06925 10.0141 8.09825 10.0141C8.23056 10.0141 8.25594 10.0232 8.17619 10.0431C7.87571 10.1287 7.60272 10.2911 7.38412 10.5144C7.30783 10.5969 7.24906 10.6941 7.21136 10.8C7.17367 10.906 7.15783 11.0184 7.16481 11.1306C7.16481 11.2919 7.17206 11.4478 7.18656 11.5983C7.20082 11.7544 7.1935 11.9117 7.16481 12.0659C7.05537 11.7378 6.84786 11.4512 6.57031 11.2448C6.28781 11.0503 5.95075 10.9506 5.60788 10.9603L4.99887 11.0183L5.29612 11.2158L4.79406 11.1596C4.61825 11.1415 4.44787 11.1379 4.2775 11.1524C4.10712 11.1669 3.944 11.2049 3.78812 11.2648C3.6288 11.3282 3.48617 11.4274 3.37125 11.5548L3.28606 12.1928C3.28606 12.4954 3.35494 12.7438 3.49088 12.9359C3.62681 13.1298 3.857 13.2259 4.17781 13.2259C4.46056 13.2259 4.73969 13.1824 5.01338 13.0918C5.28706 13.0029 5.55531 12.9051 5.81994 12.8018C5.73632 13.0072 5.64194 13.208 5.53719 13.4035C5.43206 13.5974 5.35775 13.8023 5.31063 14.0198L5.4955 14.1049C5.72206 13.9545 5.92869 13.9309 6.119 14.0343C6.30569 14.1376 6.49056 14.288 6.67 14.4874L7.22281 15.1036C7.38728 15.298 7.59532 15.4508 7.83 15.5495L7.34969 15.8033L6.21688 15.1671C6.23265 15.2082 6.24478 15.2507 6.25313 15.2939C6.26763 15.361 6.26037 15.3737 6.23137 15.3356L5.72025 14.4729C5.39243 14.4603 5.06711 14.4104 4.75056 14.3243C4.04969 14.1398 3.37449 13.8688 2.7405 13.5177C2.45202 13.3608 2.1752 13.1833 1.91219 12.9866L1.8125 14.5001C1.8125 15.6528 1.96838 16.7748 2.28013 17.8695C2.88971 20.0442 4.06192 22.0198 5.67856 23.597C6.49056 24.3963 7.40044 25.0706 8.41181 25.6143C8.36469 25.4167 8.36106 25.2174 8.39731 25.0198C8.43356 24.8223 8.48431 24.6229 8.54594 24.4253L8.73081 23.8236C8.79244 23.6224 8.82325 23.4194 8.82325 23.2218C8.82004 22.8985 8.77248 22.5771 8.68188 22.2666C8.58465 21.9253 8.46908 21.5895 8.33569 21.2607C8.19802 20.9252 8.0542 20.5922 7.90431 20.262C7.75388 19.9321 7.62337 19.6186 7.51462 19.3195C7.40587 19.0204 7.33156 18.7504 7.29531 18.4984C7.25313 18.2766 7.28166 18.0471 7.37688 17.8423L7.16481 17.7426C7.22492 17.6051 7.30359 17.4764 7.39862 17.3602C7.49831 17.2406 7.59438 17.1119 7.68863 16.985C7.78288 16.8581 7.86444 16.7294 7.92969 16.5953C7.98894 16.484 8.02292 16.361 8.02918 16.2351C8.03545 16.1091 8.01385 15.9833 7.96594 15.8667C7.92866 15.7722 7.89778 15.6753 7.8735 15.5767L8.17075 15.6474C8.33206 15.2794 8.55137 15.0275 8.82869 14.8898C9.106 14.7538 9.45038 14.6849 9.85638 14.6849C9.9035 14.6849 10.0032 14.7067 10.1536 14.7484C10.3041 14.7901 10.4654 14.8408 10.6357 14.897L11.1251 15.0601C11.2792 15.1127 11.3897 15.1471 11.455 15.1671C11.455 15.2341 11.4949 15.2794 11.5746 15.3012C11.6544 15.3248 11.6943 15.3556 11.6943 15.3936L11.6689 15.506C11.6961 15.5169 11.7649 15.5513 11.8737 15.6129C11.9824 15.6746 12.0948 15.7434 12.2144 15.8178C12.3945 15.9342 12.5671 16.0619 12.731 16.2002C12.9014 16.2002 13.1352 16.2564 13.4324 16.3688C13.7279 16.4829 14.0469 16.6279 14.3876 16.8019C14.7284 16.9796 15.0746 17.1807 15.428 17.4109C15.7814 17.6448 16.1004 17.8786 16.3832 18.1196C16.6659 18.3607 16.8997 18.5981 17.0846 18.8283C17.2695 19.0621 17.3601 19.2669 17.3601 19.4446L16.878 19.9539C16.9161 20.436 16.8798 20.8076 16.7711 21.0649C16.6716 21.3156 16.5047 21.5339 16.2889 21.6957C16.0769 21.8588 15.8267 22.0002 15.5386 22.1198C15.2223 22.2572 14.9169 22.4184 14.6251 22.6019C14.6202 22.8148 14.5721 23.0245 14.4837 23.2182C14.3903 23.4404 14.2691 23.65 14.123 23.8417C13.9806 24.0311 13.8086 24.1963 13.6137 24.3311C13.4433 24.4565 13.238 24.5256 13.0264 24.5286L12.4319 24.0755C12.4519 24.0972 12.4482 24.1317 12.4247 24.1824C12.4011 24.235 12.3812 24.2423 12.3612 24.2042C12.4555 24.3854 12.4791 24.5939 12.4319 24.8277C12.3848 25.0651 12.3051 25.3062 12.1909 25.5491C12.0801 25.7916 11.9523 26.026 11.8084 26.2505C11.6912 26.4393 11.5635 26.6215 11.426 26.7961C12.4287 27.0625 13.4625 27.1942 14.5 27.1876ZM7.02344 12.5045C7.14488 12.5045 7.28444 12.5263 7.43488 12.5679C7.58531 12.6096 7.73938 12.6604 7.89344 12.7166C8.0475 12.7728 8.19975 12.8344 8.34656 12.9014C8.49337 12.9685 8.6275 13.0247 8.75075 13.0718L8.51694 13.099C8.43933 13.1082 8.36127 13.1131 8.28312 13.1135C8.13328 13.1157 7.9844 13.0893 7.8445 13.0356C7.71529 12.9855 7.58989 12.9262 7.46931 12.8579C7.35817 12.7959 7.24514 12.7372 7.13037 12.6821C7.03575 12.6343 6.93184 12.6077 6.82588 12.6042C6.73755 12.6035 6.65019 12.6227 6.57031 12.6604C6.4929 12.6992 6.4173 12.7415 6.34375 12.7873C6.34375 12.7492 6.30931 12.7311 6.24406 12.7311C6.35087 12.6463 6.47749 12.5902 6.612 12.5679C6.79144 12.5263 6.92919 12.5045 7.02344 12.5045ZM8.93563 13.1407C9.3235 13.1407 9.67694 13.2078 9.99775 13.3383C9.86774 13.3859 9.73523 13.4264 9.60081 13.4597C9.29732 13.5265 8.98274 13.5246 8.68006 13.4543C8.7135 13.3928 8.76219 13.341 8.82144 13.3038C8.87038 13.2821 8.90662 13.2259 8.93563 13.1407ZM24.3129 6.4725C24.3129 6.54863 24.2984 6.59938 24.2712 6.62838H24.3564C24.3944 6.62838 24.4216 6.63381 24.4416 6.64288L24.3129 6.4725ZM25.2898 7.85906C25.1604 7.65657 25.0281 7.45596 24.8929 7.25731C24.7602 7.06323 24.623 6.87226 24.4814 6.68456C24.4707 6.75155 24.444 6.81497 24.4035 6.86944C24.3691 6.9075 24.3546 6.99269 24.3546 7.125C24.3546 7.21019 24.3908 7.29356 24.4615 7.37331C24.5366 7.45745 24.6225 7.5312 24.7171 7.59263C24.8929 7.71083 25.0861 7.80074 25.2898 7.85906Z" fill="black"/>
</svg>
