<svg width="16" height="16" viewBox="0 0 16 16" fill="none"
    xmlns="http://www.w3.org/2000/svg">
    <path d="M15.6852 0.0602903C15.5241 -0.0204324 15.3344 -0.0204324 15.1733 0.0602903L0.316652 7.48862C0.034441 7.62988 -0.0798296 7.97312 0.0613932 8.25533C0.141781 8.41598 0.293048 8.52948 0.469761 8.56172L6.36613 9.63425L7.43866 15.5306C7.48256 15.7723 7.67608 15.9589 7.91922 15.994C7.9461 15.9979 7.97322 15.9998 8.00034 15.9998C8.21693 15.9999 8.41494 15.8775 8.51176 15.6838L15.9401 0.827106C16.0815 0.544961 15.9673 0.201647 15.6852 0.0602903ZM8.2558 13.6392L7.41924 9.04053C7.37599 8.80831 7.19432 8.62664 6.96213 8.58341L2.36117 7.74458L14.151 1.84938L8.2558 13.6392Z" fill="#018CF1"/>
    <path d="M8.2558 13.6392L7.41924 9.04053C7.37599 8.80831 7.19432 8.62664 6.96213 8.58341L2.36117 7.74458L14.151 1.84938L8.2558 13.6392Z" fill="#018CF1"/>
</svg>