<svg width="24" height="36" viewBox="0 0 24 36" fill="none"
    xmlns="http://www.w3.org/2000/svg">
    <circle cx="12" cy="12" r="12" fill="#CB53BF"/>
    <path d="M19.4209 33.5882L17.4069 16.6471H19.5V11H15.1364V12.4118H13.6819V11H9.31827V12.4118H7.86373V11H3.50013V16.6471H5.59321L3.57921 33.5882L3.5 35H19.5L19.4209 33.5882ZM4.95467 15.2353V12.4118H6.4092V13.8235H10.7728V12.4118H12.2273V13.8235H16.5909V12.4118H18.0455V15.2353C17.5149 15.2353 6.19655 15.2353 4.95467 15.2353ZM10.0455 33.5882V30.7647C10.0455 29.9863 10.698 29.3529 11.5001 29.3529C12.3021 29.3529 12.9546 29.9863 12.9546 30.7647V33.5882H10.0455ZM14.4091 33.5882V30.7647C14.4091 29.2078 13.1041 27.9412 11.5001 27.9412C9.89601 27.9412 8.591 29.2078 8.591 30.7647V33.5882H5.04339L5.88256 26.5294H8.591V25.1176H6.05042L7.05744 16.6471H15.9428L16.9498 25.1176H14.4091V26.5294H17.1175L17.9567 33.5882H14.4091Z" fill="#F6F6F6" stroke="#F6F6F6" stroke-width="0.2"/>
    <path d="M14.5 20.6925C14.5 19.42 13.1542 18.3848 11.5 18.3848C9.8458 18.3848 8.5 19.42 8.5 20.6925V23.0002H14.5V20.6925ZM13 21.8463H10V20.6925C10 20.0562 10.6729 19.5386 11.5 19.5386C12.3271 19.5386 13 20.0562 13 20.6925V21.8463Z" fill="#F6F6F6"/>
</svg>
