<svg width="22" height="16" viewBox="0 0 22 16" fill="none"
    xmlns="http://www.w3.org/2000/svg">
    <circle cx="11" cy="7.5" r="7" fill="#FFE168"/>
    <mask id="path-2-outside-1_0_1" maskUnits="userSpaceOnUse" x="0" y="1.5" width="11" height="7" fill="black">
        <rect fill="white" y="1.5" width="11" height="7"/>
        <path fill-rule="evenodd" clip-rule="evenodd" d="M8.5 7.5H2C1.44772 7.5 1 7.05228 1 6.5C1 5.94772 1.44772 5.5 2 5.5H2.08535C2.03008 5.34361 2 5.17532 2 5C2 4.17157 2.67157 3.5 3.5 3.5C3.74583 3.5 3.97784 3.55913 4.18259 3.66395C4.49918 2.9769 5.1939 2.5 6 2.5C7.10457 2.5 8 3.39543 8 4.5C8 4.52881 7.99939 4.55748 7.99818 4.586C8.15509 4.53031 8.324 4.5 8.5 4.5C9.32843 4.5 10 5.17157 10 6C10 6.82843 9.32843 7.5 8.5 7.5Z"/>
    </mask>
    <path fill-rule="evenodd" clip-rule="evenodd" d="M8.5 7.5H2C1.44772 7.5 1 7.05228 1 6.5C1 5.94772 1.44772 5.5 2 5.5H2.08535C2.03008 5.34361 2 5.17532 2 5C2 4.17157 2.67157 3.5 3.5 3.5C3.74583 3.5 3.97784 3.55913 4.18259 3.66395C4.49918 2.9769 5.1939 2.5 6 2.5C7.10457 2.5 8 3.39543 8 4.5C8 4.52881 7.99939 4.55748 7.99818 4.586C8.15509 4.53031 8.324 4.5 8.5 4.5C9.32843 4.5 10 5.17157 10 6C10 6.82843 9.32843 7.5 8.5 7.5Z" fill="#DBDADA"/>
    <path d="M2.08535 5.5V6.3H3.21661L2.83962 5.2334L2.08535 5.5ZM4.18259 3.66395L3.81804 4.37607L4.56023 4.75602L4.90917 3.99875L4.18259 3.66395ZM7.99818 4.586L7.1989 4.55218L7.1488 5.73634L8.26576 5.33992L7.99818 4.586ZM8.5 6.7H2V8.3H8.5V6.7ZM0.2 6.5C0.2 7.49411 1.00589 8.3 2 8.3V6.7C1.88954 6.7 1.8 6.61046 1.8 6.5H0.2ZM2 4.7C1.00589 4.7 0.2 5.50589 0.2 6.5H1.8C1.8 6.38954 1.88954 6.3 2 6.3V4.7ZM2 6.3H2.08535V4.7H2V6.3ZM1.2 5C1.2 5.26739 1.24596 5.52577 1.33108 5.7666L2.83962 5.2334C2.81419 5.16145 2.8 5.08325 2.8 5H1.2ZM3.5 2.7C2.22975 2.7 1.2 3.72975 1.2 5H2.8C2.8 4.6134 3.1134 4.3 3.5 4.3V2.7ZM4.54715 2.95184C4.23218 2.7906 3.87551 2.7 3.5 2.7V4.3C3.61615 4.3 3.7235 4.32767 3.81804 4.37607L4.54715 2.95184ZM6 1.7C4.87023 1.7 3.89841 2.36908 3.45602 3.32916L4.90917 3.99875C5.09995 3.58472 5.51756 3.3 6 3.3V1.7ZM8.8 4.5C8.8 2.9536 7.5464 1.7 6 1.7V3.3C6.66274 3.3 7.2 3.83726 7.2 4.5H8.8ZM8.79747 4.61981C8.79915 4.58003 8.8 4.54008 8.8 4.5H7.2C7.2 4.51754 7.19963 4.53493 7.1989 4.55218L8.79747 4.61981ZM8.5 3.7C8.23157 3.7 7.97223 3.74632 7.73061 3.83207L8.26576 5.33992C8.33795 5.3143 8.41644 5.3 8.5 5.3V3.7ZM10.8 6C10.8 4.72975 9.77026 3.7 8.5 3.7V5.3C8.8866 5.3 9.2 5.6134 9.2 6H10.8ZM8.5 8.3C9.77026 8.3 10.8 7.27026 10.8 6H9.2C9.2 6.3866 8.8866 6.7 8.5 6.7V8.3Z" fill="#1C1C1C" mask="url(#path-2-outside-1_0_1)"/>
    <mask id="path-4-outside-2_0_1" maskUnits="userSpaceOnUse" x="11" y="8.5" width="11" height="7" fill="black">
        <rect fill="white" x="11" y="8.5" width="11" height="7"/>
        <path fill-rule="evenodd" clip-rule="evenodd" d="M19.5 14.5H13C12.4477 14.5 12 14.0523 12 13.5C12 12.9477 12.4477 12.5 13 12.5H13.0854C13.0301 12.3436 13 12.1753 13 12C13 11.1716 13.6716 10.5 14.5 10.5C14.7458 10.5 14.9778 10.5591 15.1826 10.664C15.4992 9.9769 16.1939 9.5 17 9.5C18.1046 9.5 19 10.3954 19 11.5C19 11.5288 18.9994 11.5575 18.9982 11.586C19.1551 11.5303 19.324 11.5 19.5 11.5C20.3284 11.5 21 12.1716 21 13C21 13.8284 20.3284 14.5 19.5 14.5Z"/>
    </mask>
    <path fill-rule="evenodd" clip-rule="evenodd" d="M19.5 14.5H13C12.4477 14.5 12 14.0523 12 13.5C12 12.9477 12.4477 12.5 13 12.5H13.0854C13.0301 12.3436 13 12.1753 13 12C13 11.1716 13.6716 10.5 14.5 10.5C14.7458 10.5 14.9778 10.5591 15.1826 10.664C15.4992 9.9769 16.1939 9.5 17 9.5C18.1046 9.5 19 10.3954 19 11.5C19 11.5288 18.9994 11.5575 18.9982 11.586C19.1551 11.5303 19.324 11.5 19.5 11.5C20.3284 11.5 21 12.1716 21 13C21 13.8284 20.3284 14.5 19.5 14.5Z" fill="#DBDADA"/>
    <path d="M13.0854 12.5V13.3H14.2166L13.8396 12.2334L13.0854 12.5ZM15.1826 10.664L14.818 11.3761L15.5602 11.756L15.9092 10.9987L15.1826 10.664ZM18.9982 11.586L18.1989 11.5522L18.1488 12.7363L19.2658 12.3399L18.9982 11.586ZM19.5 13.7H13V15.3H19.5V13.7ZM11.2 13.5C11.2 14.4941 12.0059 15.3 13 15.3V13.7C12.8895 13.7 12.8 13.6105 12.8 13.5H11.2ZM13 11.7C12.0059 11.7 11.2 12.5059 11.2 13.5H12.8C12.8 13.3895 12.8895 13.3 13 13.3V11.7ZM13 13.3H13.0854V11.7H13V13.3ZM12.2 12C12.2 12.2674 12.246 12.5258 12.3311 12.7666L13.8396 12.2334C13.8142 12.1614 13.8 12.0832 13.8 12H12.2ZM14.5 9.7C13.2297 9.7 12.2 10.7297 12.2 12H13.8C13.8 11.6134 14.1134 11.3 14.5 11.3V9.7ZM15.5471 9.95184C15.2322 9.7906 14.8755 9.7 14.5 9.7V11.3C14.6161 11.3 14.7235 11.3277 14.818 11.3761L15.5471 9.95184ZM17 8.7C15.8702 8.7 14.8984 9.36908 14.456 10.3292L15.9092 10.9987C16.0999 10.5847 16.5176 10.3 17 10.3V8.7ZM19.8 11.5C19.8 9.9536 18.5464 8.7 17 8.7V10.3C17.6627 10.3 18.2 10.8373 18.2 11.5H19.8ZM19.7975 11.6198C19.7992 11.58 19.8 11.5401 19.8 11.5H18.2C18.2 11.5175 18.1996 11.5349 18.1989 11.5522L19.7975 11.6198ZM19.5 10.7C19.2316 10.7 18.9722 10.7463 18.7306 10.8321L19.2658 12.3399C19.3379 12.3143 19.4164 12.3 19.5 12.3V10.7ZM21.8 13C21.8 11.7297 20.7703 10.7 19.5 10.7V12.3C19.8866 12.3 20.2 12.6134 20.2 13H21.8ZM19.5 15.3C20.7703 15.3 21.8 14.2703 21.8 13H20.2C20.2 13.3866 19.8866 13.7 19.5 13.7V15.3Z" fill="#1C1C1C" mask="url(#path-4-outside-2_0_1)"/>
</svg>
