<svg width="24" height="39" viewBox="0 0 24 39" fill="none"
    xmlns="http://www.w3.org/2000/svg">
    <circle cx="12" cy="12" r="12" fill="#E45757"/>
    <path d="M8.68125 36.3515C8.37531 36.9696 8.13517 37.4797 8.14728 37.4978C8.1652 37.5214 10.1391 37.8158 12.5451 38.1819C14.9511 38.5418 17.6088 38.9437 18.449 39.07C19.2889 39.195 19.9848 39.2987 19.9848 39.2916C20.0088 39.268 18.9888 37.2159 18.9587 37.2159C18.9348 37.2159 16.7507 36.7718 14.1049 36.2259C11.459 35.6798 9.28102 35.2359 9.26891 35.2359C9.25123 35.2359 8.9872 35.7399 8.68125 36.3515ZM15.419 25.24C14.7771 25.4262 14.7589 25.438 14.7771 25.5942C14.7832 25.6838 14.7531 25.8229 14.6992 25.9002C14.603 26.044 14.603 26.044 15.1913 26.464L15.7792 26.8902L15.9772 26.5482C16.2892 25.9959 16.3253 25.8281 16.1931 25.408L16.0791 25.0542L15.419 25.24ZM17.5309 24.6342C16.949 24.8015 16.8829 24.8322 16.9069 24.9401C16.9189 25.0109 16.9969 25.3001 17.0749 25.582L17.2128 26.0982L16.9848 26.5421C16.8587 26.7879 16.7028 27.0698 16.6428 27.1721L16.5288 27.3583L16.7568 27.5092C16.8769 27.594 17.1588 27.755 17.3747 27.8753L17.7647 28.0968L18.2268 27.2332C18.4909 26.7471 18.6889 26.303 18.6889 26.2071C18.6889 26.0209 18.2568 24.431 18.2089 24.443C18.191 24.443 17.8848 24.5305 17.5309 24.6342ZM19.6489 24.0282C19.3008 24.1295 19.013 24.2144 19.0069 24.2191C19.0008 24.2191 19.1388 24.723 19.3189 25.317C19.4991 25.9172 19.6489 26.4388 19.6489 26.481C19.6489 26.5164 19.4269 26.9729 19.1567 27.4889C18.8808 28.0049 18.6528 28.4429 18.6407 28.4669C18.6167 28.514 18.9345 28.6649 19.5706 28.9046L19.9427 29.0484L20.5427 27.9144C20.9026 27.2485 21.1486 26.7146 21.1486 26.6125C21.1486 26.523 20.9745 25.8625 20.7586 25.1546C20.5427 24.4466 20.3687 23.8646 20.3687 23.8526C20.3687 23.8219 20.2908 23.8537 19.6489 24.0282ZM21.8987 23.3441C21.5688 23.4573 21.2929 23.5586 21.2868 23.5586C21.2807 23.5586 21.4909 24.2606 21.7489 25.1127L22.2168 26.6606L21.5327 27.9325C21.1546 28.6345 20.8487 29.2226 20.8487 29.2407C20.8487 29.3067 22.2407 29.5467 22.2886 29.4927C22.3187 29.4692 22.6367 28.8867 23.0027 28.2088C23.4709 27.3329 23.6689 26.9069 23.6689 26.7688C23.6689 26.4869 22.6428 23.1148 22.5649 23.1209C22.5288 23.1209 22.2289 23.2239 21.8987 23.3441ZM13.5291 19.0661C10.6012 19.5524 8.41109 21.3521 7.67913 23.8721C7.355 24.9885 7.355 26.2243 7.68526 27.364C7.89539 28.0959 8.41722 29.134 8.89115 29.7579C9.32901 30.3399 9.36508 30.4419 9.54519 31.6179C9.61706 32.0799 9.65315 32.6798 9.65315 33.3577L9.65928 34.3895L9.95915 34.4555C10.1271 34.4908 12.071 34.8993 14.2791 35.3613C16.4931 35.8235 18.3649 36.2195 18.4489 36.2375C18.5808 36.2728 18.5689 36.2375 18.3288 35.9732C17.9628 35.5654 17.6269 34.9773 17.5429 34.5933C17.3988 33.9694 17.6569 33.5616 18.3409 33.3153C18.5511 33.2422 18.8749 33.1291 19.0668 33.0633C19.253 32.9973 19.4088 32.9266 19.4088 32.9007C19.4027 32.8771 18.9528 32.6428 18.401 32.3729C16.847 31.6109 15.3051 30.627 13.5653 29.277C12.5034 28.4549 12.2693 28.2213 12.2693 27.9931C12.2693 27.7473 12.5092 27.4953 12.7433 27.4953C12.8812 27.4953 13.1032 27.6391 13.6911 28.1072C16.0431 29.9972 18.6229 31.5571 20.243 32.079C20.609 32.1992 20.927 32.2958 20.9449 32.2958C20.9689 32.2958 20.9689 31.9899 20.9511 31.6179L20.915 30.9339L21.2689 30.6699C21.4669 30.5261 21.623 30.3941 21.6288 30.376C21.6288 30.3524 21.3947 30.2982 21.1066 30.2369C18.6227 29.7329 15.7367 28.251 13.619 26.4032L13.385 26.1934L13.5708 25.9766C13.8592 25.6527 13.9313 25.3526 13.8113 24.9927C13.7573 24.8371 13.7333 24.6867 13.7573 24.6627C13.7812 24.6391 15.6293 24.1168 17.8671 23.4987C20.5429 22.7546 21.9289 22.3468 21.9289 22.2928C21.9289 22.1608 20.7831 21.0631 20.267 20.697C19.2649 19.9831 17.9632 19.419 16.7212 19.1491C15.9532 18.9865 14.2671 18.9412 13.5291 19.0661ZM12.677 24.8923C12.7492 24.9771 12.8089 25.1209 12.8089 25.2221C12.8089 25.474 12.5209 25.7562 12.2689 25.7562C12.0409 25.7562 11.7289 25.474 11.7289 25.264C11.7411 24.7542 12.3411 24.5142 12.677 24.8923ZM14.369 11.0926C14.1531 11.1398 13.7089 11.3095 13.3729 11.4764C13.043 11.639 12.7249 11.7764 12.671 11.7764C12.617 11.7764 12.335 11.6562 12.047 11.5066C11.1349 11.0387 10.463 10.9547 9.83894 11.2305C9.56907 11.3507 9.15489 11.6928 8.97507 11.9504L8.86107 12.106H9.44294C10.157 12.106 10.349 12.1955 10.349 12.526C10.349 12.8141 10.217 12.8558 9.35895 12.8558C6.40108 12.8558 4.77524 13.7319 4.04905 15.7237C3.77312 16.4858 3.68307 17.0018 3.64699 18.1358C3.60515 19.4857 3.71308 20.4396 4.12092 22.4255C4.42082 23.8957 4.42687 23.9497 4.43293 25.0057C4.43906 25.8757 4.42091 26.1515 4.33681 26.4216C4.19884 26.8657 3.89897 27.2978 3.58089 27.5257C3.335 27.693 3.28679 27.7048 2.74099 27.7048C2.23098 27.7048 2.12304 27.6813 1.85289 27.5422C1.57753 27.3984 1.26551 27.1045 1.06145 26.7985C0.935322 26.6123 1.01931 27.5064 1.16941 28.0042C1.58936 29.3362 2.35739 30.2963 3.31739 30.6861C3.61726 30.8064 3.76128 30.8252 4.49931 30.8252C5.44717 30.8252 5.84922 30.7404 6.53935 30.4113C6.77342 30.3029 7.07937 30.1054 7.22945 29.9731L7.49355 29.7332L7.24763 29.1993C6.92958 28.5091 6.65363 27.6393 6.53358 26.9373C6.38347 26.0914 6.44351 24.5974 6.65363 23.8353C7.00173 22.5995 7.66152 21.4476 8.59149 20.4755C9.15548 19.8815 9.6115 19.5154 10.2534 19.1435C10.4875 19.0044 10.6915 18.8853 10.7095 18.8736C10.7274 18.85 10.6615 18.7769 10.5594 18.6991C10.0554 18.2909 8.97537 18.2671 7.86558 18.6402C7.18759 18.8688 6.86954 18.9044 6.64757 18.7793C6.5096 18.7015 6.23945 18.3894 6.2816 18.3472C6.29362 18.3236 6.4135 18.3708 6.53963 18.4061C6.67154 18.4533 6.82768 18.491 6.88166 18.4957C6.94169 18.4957 7.21156 18.2906 7.48172 18.0457C7.75764 17.7938 8.12362 17.4937 8.30373 17.374C8.6697 17.1279 9.22763 16.936 9.5636 16.936C10.1515 16.936 10.8774 17.332 11.5375 18.0099L11.939 18.4179L12.3471 18.3213L12.7553 18.2246L12.7192 17.8946C12.647 17.2528 12.4251 16.7606 12.0591 16.437C11.627 16.053 10.583 15.7527 9.90503 15.8251L9.5991 15.8557L9.83894 15.7661C9.97084 15.7119 10.325 15.6271 10.6188 15.5799C11.6088 15.4055 12.3826 15.5799 12.9466 16.0961C13.3365 16.45 13.5767 16.9181 13.6965 17.5661L13.7865 18.046H14.9026C16.0006 18.046 16.9427 18.1473 17.8484 18.346L18.2383 18.4309L18.5743 18.071C19.1804 17.4291 19.4503 16.751 19.5103 15.761C19.5524 15.047 19.4682 14.4473 19.2344 13.7633C18.9942 13.0672 18.7304 12.6531 18.1783 12.1013C17.6383 11.5551 17.0925 11.2312 16.4624 11.0813C15.989 10.9729 14.9029 10.9729 14.369 11.0813V11.0926Z" fill="white"/>
</svg>
