<svg width="21" height="32" viewBox="0 0 21 32" fill="none"
    xmlns="http://www.w3.org/2000/svg">
    <path d="M21 10.5C21 16.299 16.299 21 10.5 21C4.70101 21 0 16.299 0 10.5C0 4.70101 4.70101 0 10.5 0C16.299 0 21 4.70101 21 10.5Z" fill="#CBBEC8"/>
    <path d="M10 12C4.48 12 0 16.48 0 22C0 27.52 4.48 32 10 32C15.52 32 20 27.52 20 22C20 16.48 15.52 12 10 12ZM5.35 28.5C6.66 27.56 8.26 27 10 27C11.74 27 13.34 27.56 14.65 28.5C13.34 29.44 11.74 30 10 30C8.26 30 6.66 29.44 5.35 28.5ZM16.14 27.12C14.45 25.8 12.32 25 10 25C7.68 25 5.55 25.8 3.86 27.12C2.7 25.73 2 23.95 2 22C2 17.58 5.58 14 10 14C14.42 14 18 17.58 18 22C18 23.95 17.3 25.73 16.14 27.12Z" fill="white"/>
    <path d="M10 16C8.07 16 6.5 17.57 6.5 19.5C6.5 21.43 8.07 23 10 23C11.93 23 13.5 21.43 13.5 19.5C13.5 17.57 11.93 16 10 16ZM10 21C9.17 21 8.5 20.33 8.5 19.5C8.5 18.67 9.17 18 10 18C10.83 18 11.5 18.67 11.5 19.5C11.5 20.33 10.83 21 10 21Z" fill="white"/>
</svg>
